Travis Barker - Can A Drummer Get Some (Feat. Lil Wayne, Rick Ross, Swizz Beatz, Game)-[2011] - [PhoenixRG] 

 
http://img822.imageshack.us/img822/7977/travisn.jpg

General

Format                           : MPEG-4
Format profile                   : Base Media
Codec ID                         : isom
File size                        : 61.3 MiB
Duration                         : 4mn 26s
Overall bit rate                 : 1 932 Kbps
Writing application              : Lavf52.57.1

Video
ID                               : 1
Format                           : MPEG-4 Visual
Format profile                   : Simple@L3
Codec ID                         : 20
Duration                         : 4mn 26s
Bit rate mode                    : Variable
Bit rate                         : 1 761 Kbps
Width                            : 640 pixels
Height                           : 360 pixels
Display aspect ratio             : 16:9
Frame rate mode                  : Constant
Frame rate                       : 24.000 fps
Color space                      : YUV
Chroma subsampling               : 4:2:0
Bit depth                        : 8 bits
Scan type                        : Progressive
Compression mode                 : Lossy
Bits/(Pixel*Frame)               : 0.318
Stream size                      : 55.8 MiB (91%)
Writing library                  : ZJMedia MPEG Encoder

Audio
ID                               : 2
Format                           : AAC
Format/Info                      : Advanced Audio Codec
Format profile                   : LC
Codec ID                         : 40
Duration                         : 4mn 25s
Bit rate mode                    : Variable
Bit rate                         : 164 Kbps
Channel(s)                       : 2 channels
Channel positions                : Front: L R
Sampling rate                    : 48.0 KHz
Compression mode                 : Lossy
Stream size                      : 5.20 MiB (8%)